<?xml version="1.0" encoding="UTF-8" standalone="no"?><!DOCTYPE svg PUBLIC "-//W3C//DTD SVG 1.1//EN" "http://www.w3.org/Graphics/SVG/1.1/DTD/svg11.dtd"><svg width="100%" height="100%" viewBox="0 0 912 912" version="1.1" xmlns="http://www.w3.org/2000/svg" xmlns:xlink="http://www.w3.org/1999/xlink" xml:space="preserve" xmlns:serif="http://www.serif.com/" style="fill-rule:evenodd;clip-rule:evenodd;stroke-linejoin:round;stroke-miterlimit:2;"><path d="M412.843,56.445c8.109,-15.69 24.294,-25.545 41.955,-25.545c17.661,0 33.846,9.855 41.954,25.545l115.57,223.642c0.237,0.457 0.577,0.853 0.993,1.156c0.417,0.303 0.899,0.504 1.407,0.587l248.409,40.805c17.428,2.863 31.802,15.21 37.259,32.007c5.458,16.797 1.087,35.235 -11.33,47.795l-176.982,179.023c-0.363,0.366 -0.634,0.812 -0.793,1.302c-0.159,0.49 -0.202,1.01 -0.124,1.519l37.955,248.86c2.663,17.46 -4.639,34.946 -18.927,45.327c-14.288,10.38 -33.175,11.921 -48.956,3.994l-224.952,-113c-0.46,-0.231 -0.968,-0.352 -1.483,-0.352c-0.515,0 -1.023,0.121 -1.484,0.352l-224.951,113c-15.782,7.927 -34.668,6.386 -48.957,-3.994c-14.288,-10.381 -21.589,-27.867 -18.927,-45.327l37.956,-248.86c0.077,-0.509 0.035,-1.029 -0.124,-1.519c-0.159,-0.49 -0.431,-0.936 -0.793,-1.302l-176.983,-179.023c-12.416,-12.56 -16.787,-30.998 -11.33,-47.795c5.458,-16.797 19.832,-29.144 37.259,-32.007l248.409,-40.805c0.509,-0.083 0.99,-0.284 1.407,-0.587c0.417,-0.303 0.757,-0.699 0.993,-1.156l115.57,-223.642Z" style="fill:url(#_Radial1);"/><clipPath id="_clip2"><path d="M412.843,56.445c8.109,-15.69 24.294,-25.545 41.955,-25.545c17.661,0 33.846,9.855 41.954,25.545l115.57,223.642c0.237,0.457 0.577,0.853 0.993,1.156c0.417,0.303 0.899,0.504 1.407,0.587l248.409,40.805c17.428,2.863 31.802,15.21 37.259,32.007c5.458,16.797 1.087,35.235 -11.33,47.795l-176.982,179.023c-0.363,0.366 -0.634,0.812 -0.793,1.302c-0.159,0.49 -0.202,1.01 -0.124,1.519l37.955,248.86c2.663,17.46 -4.639,34.946 -18.927,45.327c-14.288,10.38 -33.175,11.921 -48.956,3.994l-224.952,-113c-0.46,-0.231 -0.968,-0.352 -1.483,-0.352c-0.515,0 -1.023,0.121 -1.484,0.352l-224.951,113c-15.782,7.927 -34.668,6.386 -48.957,-3.994c-14.288,-10.381 -21.589,-27.867 -18.927,-45.327l37.956,-248.86c0.077,-0.509 0.035,-1.029 -0.124,-1.519c-0.159,-0.49 -0.431,-0.936 -0.793,-1.302l-176.983,-179.023c-12.416,-12.56 -16.787,-30.998 -11.33,-47.795c5.458,-16.797 19.832,-29.144 37.259,-32.007l248.409,-40.805c0.509,-0.083 0.99,-0.284 1.407,-0.587c0.417,-0.303 0.757,-0.699 0.993,-1.156l115.57,-223.642Z"/></clipPath><g clip-path="url(#_clip2)"><path d="M721.82,457.699c150.479,588.559 -1.331,1158.58 -338.798,1272.13c-337.466,113.547 -733.616,-272.103 -884.095,-860.662c-150.479,-588.559 1.331,-1158.58 338.798,-1272.13c337.466,-113.547 733.616,272.103 884.095,860.662Z" style="fill:url(#_Radial3);"/><path d="M720.77,482.392c338.674,127.043 538.423,393.343 445.784,594.308c-92.64,200.965 -442.813,260.98 -781.488,133.938c-338.675,-127.042 -538.424,-393.343 -445.784,-594.308c92.64,-200.965 442.813,-260.98 781.488,-133.938Z" style="fill:url(#_Radial4);"/><path d="M851.41,-415.092c468.714,386.462 687.763,928.708 488.855,1210.14c-198.907,281.433 -740.931,196.162 -1209.64,-190.3c-468.713,-386.463 -687.762,-928.709 -488.855,-1210.14c198.908,-281.432 740.931,-196.162 1209.64,190.301Z" style="fill:url(#_Radial5);"/><path d="M1212.41,-85.914c426.052,433.042 587.612,995.102 360.557,1254.36c-227.054,259.258 -757.294,118.167 -1183.35,-314.875c-426.052,-433.043 -587.613,-995.103 -360.558,-1254.36c227.055,-259.258 757.295,-118.168 1183.35,314.875Z" style="fill:url(#_Radial6);"/><path d="M646.015,300.183c-85.547,430.484 -366.125,769.295 -626.173,756.131c-260.048,-13.164 -401.72,-373.349 -316.174,-803.833c85.547,-430.484 366.126,-769.295 626.174,-756.131c260.048,13.164 401.72,373.349 316.173,803.833Z" style="fill:url(#_Radial7);"/></g><path d="M424.871,62.66l-115.57,223.642c-1.205,2.333 -2.939,4.351 -5.063,5.894c-2.124,1.543 -4.579,2.568 -7.17,2.994l-248.409,40.805c-12.432,2.042 -22.685,10.85 -26.578,22.831c-3.893,11.981 -0.775,25.134 8.082,34.092l176.983,179.023c1.846,1.867 3.229,4.14 4.041,6.637c0.811,2.497 1.027,5.149 0.632,7.744l-37.956,248.861c-1.899,12.454 3.309,24.927 13.501,32.331c10.192,7.405 23.664,8.504 34.922,2.85l224.951,-113c2.346,-1.179 4.935,-1.792 7.561,-1.792c2.625,-0 5.214,0.613 7.56,1.792l224.952,113c11.257,5.654 24.729,4.555 34.921,-2.85c10.192,-7.404 15.401,-19.877 13.501,-32.331l-37.955,-248.861c-0.396,-2.595 -0.18,-5.247 0.632,-7.744c0.811,-2.497 2.195,-4.77 4.041,-6.637l176.982,-179.023c8.857,-8.958 11.975,-22.111 8.082,-34.092c-3.893,-11.981 -14.146,-20.789 -26.577,-22.831l-248.409,-40.805c-2.591,-0.426 -5.046,-1.451 -7.17,-2.994c-2.124,-1.543 -3.858,-3.561 -5.063,-5.894l-115.571,-223.642c-5.783,-11.192 -17.328,-18.221 -29.926,-18.221c-12.598,0 -24.143,7.029 -29.927,18.221Z" style="fill:url(#_Radial8);"/><clipPath id="_clip9"><path d="M424.871,62.66l-115.57,223.642c-1.205,2.333 -2.939,4.351 -5.063,5.894c-2.124,1.543 -4.579,2.568 -7.17,2.994l-248.409,40.805c-12.432,2.042 -22.685,10.85 -26.578,22.831c-3.893,11.981 -0.775,25.134 8.082,34.092l176.983,179.023c1.846,1.867 3.229,4.14 4.041,6.637c0.811,2.497 1.027,5.149 0.632,7.744l-37.956,248.861c-1.899,12.454 3.309,24.927 13.501,32.331c10.192,7.405 23.664,8.504 34.922,2.85l224.951,-113c2.346,-1.179 4.935,-1.792 7.561,-1.792c2.625,-0 5.214,0.613 7.56,1.792l224.952,113c11.257,5.654 24.729,4.555 34.921,-2.85c10.192,-7.404 15.401,-19.877 13.501,-32.331l-37.955,-248.861c-0.396,-2.595 -0.18,-5.247 0.632,-7.744c0.811,-2.497 2.195,-4.77 4.041,-6.637l176.982,-179.023c8.857,-8.958 11.975,-22.111 8.082,-34.092c-3.893,-11.981 -14.146,-20.789 -26.577,-22.831l-248.409,-40.805c-2.591,-0.426 -5.046,-1.451 -7.17,-2.994c-2.124,-1.543 -3.858,-3.561 -5.063,-5.894l-115.571,-223.642c-5.783,-11.192 -17.328,-18.221 -29.926,-18.221c-12.598,0 -24.143,7.029 -29.927,18.221Z"/></clipPath><g clip-path="url(#_clip9)"><path d="M696.271,-186.164c272.065,20.241 492.948,248.166 492.948,508.666c0,260.499 -220.883,455.559 -492.948,435.318c-272.066,-20.24 -492.948,-248.166 -492.948,-508.665c-0,-260.5 220.882,-455.559 492.948,-435.319Z" style="fill:url(#_Radial10);"/></g><path d="M412.55,447.825l46.547,0l0,1.496l-63.558,62.436l66.362,70.662l0,1.495l-48.977,0l-44.303,-47.481l-45.8,47.481l-46.733,0l-0,-1.495l68.044,-70.475l-61.689,-62.623l0,-1.496l47.856,0l39.63,42.061l42.621,-42.061Zm110.853,106.18l-11.403,-29.723l-1.309,-0l0,59.632l-38.508,0l-0,-130.481c-0,-3.738 1.682,-5.608 5.421,-5.608l105.431,0c37.014,0 50.473,18.32 50.473,48.417l-0,11.029c-0,31.218 -13.833,46.734 -48.603,46.734l-61.502,-0Zm54.772,-72.157l-65.053,-0c-1.683,-0 -2.431,0.934 -2.431,2.617l0,36.265l67.484,0c12.338,0 16.824,-4.673 16.824,-15.889l0,-6.73c0,-12.712 -4.486,-16.263 -16.824,-16.263Z" style="fill:#630;"/><defs><radialGradient id="_Radial1" cx="0" cy="0" r="1" gradientUnits="userSpaceOnUse" gradientTransform="matrix(884.826,569.187,-731.763,1137.56,97.6955,1090.36)"><stop offset="0" style="stop-color:#ff8000;stop-opacity:1"/><stop offset="1" style="stop-color:#ffd500;stop-opacity:1"/></radialGradient><radialGradient id="_Radial3" cx="0" cy="0" r="1" gradientUnits="userSpaceOnUse" gradientTransform="matrix(272.649,1066.39,-611.447,205.733,110.373,663.432)"><stop offset="0" style="stop-color:#995900;stop-opacity:0.8"/><stop offset="1" style="stop-color:#ffa600;stop-opacity:0"/></radialGradient><radialGradient id="_Radial4" cx="0" cy="0" r="1" gradientUnits="userSpaceOnUse" gradientTransform="matrix(613.636,230.185,-167.852,364.123,552.918,846.515)"><stop offset="0" style="stop-color:#995900;stop-opacity:0.8"/><stop offset="1" style="stop-color:#ffa600;stop-opacity:0"/></radialGradient><radialGradient id="_Radial5" cx="0" cy="0" r="1" gradientUnits="userSpaceOnUse" gradientTransform="matrix(849.25,700.221,-360.395,509.92,491.015,94.8282)"><stop offset="0" style="stop-color:#fff;stop-opacity:1"/><stop offset="1" style="stop-color:#fff;stop-opacity:0"/></radialGradient><radialGradient id="_Radial6" cx="0" cy="0" r="1" gradientUnits="userSpaceOnUse" gradientTransform="matrix(771.952,784.618,-411.394,469.742,801.015,383.828)"><stop offset="0" style="stop-color:#fff;stop-opacity:0.8"/><stop offset="1" style="stop-color:#fff;stop-opacity:0"/></radialGradient><radialGradient id="_Radial7" cx="0" cy="0" r="1" gradientUnits="userSpaceOnUse" gradientTransform="matrix(-155,779.982,-471.173,-23.8512,174.842,276.332)"><stop offset="0" style="stop-color:#995900;stop-opacity:0.8"/><stop offset="1" style="stop-color:#ffa600;stop-opacity:0"/></radialGradient><radialGradient id="_Radial8" cx="0" cy="0" r="1" gradientUnits="userSpaceOnUse" gradientTransform="matrix(884.826,569.187,-731.763,1137.56,97.6955,1090.36)"><stop offset="0" style="stop-color:#ff8000;stop-opacity:1"/><stop offset="1" style="stop-color:#ffd500;stop-opacity:1"/></radialGradient><radialGradient id="_Radial10" cx="0" cy="0" r="1" gradientUnits="userSpaceOnUse" gradientTransform="matrix(492.948,36.6734,2.75058e-14,471.992,696.271,285.828)"><stop offset="0" style="stop-color:#fff;stop-opacity:0.68"/><stop offset="0.88" style="stop-color:#fff;stop-opacity:0.22"/><stop offset="1" style="stop-color:#fff;stop-opacity:0"/></radialGradient></defs></svg>