<?xml version="1.0" encoding="UTF-8" standalone="no"?>
<!DOCTYPE svg PUBLIC "-//W3C//DTD SVG 1.1//EN" "http://www.w3.org/Graphics/SVG/1.1/DTD/svg11.dtd">
<svg width="100%" height="100%" viewBox="0 0 900 900" version="1.1" xmlns="http://www.w3.org/2000/svg" xmlns:xlink="http://www.w3.org/1999/xlink" xml:space="preserve" xmlns:serif="http://www.serif.com/" style="fill-rule:evenodd;clip-rule:evenodd;stroke-linejoin:round;stroke-miterlimit:2;">
    <g transform="matrix(6.17405,0,0,6.17405,-346.228,-341.094)">
        <g id="Artboard1">
            <g>
                <g>
                    <g>
                        <path d="M161.725,157.083L172.231,191.223L153.472,186.873L140.404,201.018L132.879,176.565L135.127,169.258L135.705,168.967L140.135,165.789L145.445,167.029L149.019,167.294L152.502,166.452L155.56,164.585L157.9,161.87L160.777,157.239L161.725,157.083ZM126.824,170.799L117.524,201.018L104.456,186.873L85.697,191.223L96.203,157.083L97.151,157.239L100.028,161.87L102.368,164.585L105.426,166.452L108.909,167.294L112.483,167.029L117.793,165.789L122.223,168.967L125.424,170.579L126.824,170.799Z"/>
                    </g>
                </g>
            </g>
        </g>
    </g>
    <g transform="matrix(1.22509,0,0,1.22509,-150.018,-110.823)">
        <path d="M475.365,232.795C477.93,227.14 483.564,223.509 489.773,223.509C495.982,223.509 501.617,227.14 504.181,232.795L535.825,302.575L611.968,311.107C618.139,311.798 623.334,316.035 625.253,321.94C627.171,327.845 625.458,334.326 620.873,338.512L564.287,390.171L579.702,465.224C580.951,471.305 578.527,477.556 573.504,481.205C568.481,484.855 561.788,485.229 556.389,482.161L489.773,444.308L423.157,482.161C417.759,485.229 411.066,484.855 406.043,481.205C401.02,477.556 398.596,471.305 399.845,465.224L415.26,390.171L358.674,338.512C354.088,334.326 352.375,327.845 354.294,321.94C356.213,316.035 361.408,311.798 367.578,311.107L443.721,302.575L475.365,232.795Z"/>
    </g>
    <g transform="matrix(1.67733,0,0,1.67733,114.254,0.00171463)">
        <path d="M190.646,3.061C193.422,1.07 196.752,-0.001 200.168,-0.001C203.584,-0.001 206.915,1.07 209.691,3.061L230.851,18.238C232.364,19.324 234.092,20.073 235.919,20.437C237.746,20.8 239.629,20.769 241.442,20.345L266.8,14.421C270.127,13.643 273.613,13.929 276.769,15.236C279.926,16.543 282.592,18.807 284.395,21.709L298.136,43.829C299.119,45.411 300.429,46.764 301.977,47.799C303.526,48.834 305.278,49.526 307.116,49.828L332.81,54.059C336.181,54.614 339.293,56.211 341.709,58.627C344.124,61.043 345.722,64.155 346.277,67.525L350.507,93.22C350.81,95.058 351.502,96.809 352.536,98.358C353.571,99.907 354.925,101.216 356.507,102.199L378.627,115.94C381.529,117.743 383.792,120.41 385.1,123.566C386.407,126.722 386.692,130.209 385.915,133.536L379.99,158.893C379.567,160.707 379.535,162.59 379.899,164.417C380.262,166.243 381.012,167.971 382.097,169.485L397.275,190.645C399.266,193.421 400.337,196.751 400.337,200.167C400.337,203.583 399.266,206.914 397.275,209.69L382.097,230.85C381.012,232.363 380.262,234.091 379.899,235.918C379.535,237.745 379.567,239.628 379.99,241.441L385.915,266.799C386.692,270.126 386.407,273.612 385.1,276.768C383.792,279.924 381.529,282.591 378.627,284.394L356.507,298.135C354.925,299.118 353.571,300.428 352.536,301.976C351.502,303.525 350.81,305.277 350.507,307.115L346.277,332.809C345.722,336.18 344.124,339.292 341.709,341.708C339.293,344.123 336.181,345.721 332.81,346.276L307.116,350.506C305.278,350.809 303.526,351.501 301.977,352.535C300.429,353.57 299.119,354.924 298.136,356.506L284.395,378.626C282.592,381.528 279.926,383.791 276.769,385.099C273.613,386.406 270.127,386.691 266.8,385.914L241.442,379.989C239.629,379.566 237.746,379.534 235.919,379.898C234.092,380.261 232.364,381.011 230.851,382.096L209.691,397.274C206.915,399.265 203.584,400.336 200.168,400.336C196.752,400.336 193.422,399.265 190.646,397.274L169.486,382.096C167.972,381.011 166.244,380.261 164.418,379.898C162.591,379.534 160.708,379.566 158.894,379.989L133.537,385.914C130.21,386.691 126.723,386.406 123.567,385.099C120.411,383.791 117.744,381.528 115.941,378.626L102.2,356.506C101.217,354.924 99.908,353.57 98.359,352.535C96.811,351.501 95.059,350.809 93.221,350.506L67.526,346.276C64.156,345.721 61.044,344.123 58.628,341.708C56.212,339.292 54.615,336.18 54.06,332.809L49.829,307.115C49.527,305.277 48.835,303.525 47.8,301.976C46.765,300.428 45.412,299.118 43.83,298.135L21.71,284.394C18.808,282.591 16.544,279.924 15.237,276.768C13.93,273.612 13.644,270.126 14.422,266.799L20.346,241.441C20.77,239.628 20.801,237.745 20.438,235.918C20.074,234.091 19.325,232.363 18.239,230.85L3.062,209.69C1.071,206.914 0,203.583 0,200.167C0,196.751 1.071,193.421 3.062,190.645L18.239,169.485C19.325,167.971 20.074,166.243 20.438,164.417C20.801,162.59 20.77,160.707 20.346,158.893L14.422,133.536C13.644,130.209 13.93,126.722 15.237,123.566C16.544,120.41 18.808,117.743 21.71,115.94L43.83,102.199C45.412,101.216 46.765,99.907 47.8,98.358C48.835,96.809 49.527,95.058 49.829,93.22L54.06,67.525C54.615,64.155 56.212,61.043 58.628,58.627C61.044,56.211 64.156,54.614 67.526,54.059L93.221,49.828C95.059,49.526 96.811,48.834 98.359,47.799C99.908,46.764 101.217,45.411 102.2,43.829L115.941,21.709C117.744,18.807 120.411,16.543 123.567,15.236C126.723,13.929 130.21,13.643 133.537,14.421L158.894,20.345C160.708,20.769 162.591,20.8 164.418,20.437C166.244,20.073 167.972,19.324 169.486,18.238L190.646,3.061ZM200.168,61.888C123.85,61.888 61.889,123.849 61.889,200.167C61.889,276.485 123.85,338.446 200.168,338.446C276.486,338.446 338.447,276.485 338.447,200.167C338.447,123.849 276.486,61.888 200.168,61.888Z"/>
    </g>
</svg>
