<?xml version="1.0" encoding="UTF-8" standalone="no"?>
<!DOCTYPE svg PUBLIC "-//W3C//DTD SVG 1.1//EN" "http://www.w3.org/Graphics/SVG/1.1/DTD/svg11.dtd">
<svg width="100%" height="100%" viewBox="0 0 900 900" version="1.1" xmlns="http://www.w3.org/2000/svg" xmlns:xlink="http://www.w3.org/1999/xlink" xml:space="preserve" xmlns:serif="http://www.serif.com/" style="fill-rule:evenodd;clip-rule:evenodd;stroke-linejoin:round;stroke-miterlimit:2;">
    <g id="Artboard1" transform="matrix(6.08281,0,0,6.08281,51.5179,0)">
        <rect x="-8.469" y="0" width="147.958" height="147.958" style="fill:none;"/>
        <clipPath id="_clip1">
            <rect x="-8.469" y="0" width="147.958" height="147.958"/>
        </clipPath>
        <g clip-path="url(#_clip1)">
            <g transform="matrix(6.08281,0,0,6.08281,-332.972,-376.021)">
                <g transform="matrix(0.169915,0,0,0.169915,43.5966,51.985)">
                    <path d="M128.964,57.864C157.533,57.864 180.727,81.058 180.727,109.627C180.727,138.196 157.533,161.39 128.964,161.39C100.395,161.39 77.201,138.196 77.201,109.627C77.201,81.058 100.395,57.864 128.964,57.864ZM128.964,72.055C108.227,72.055 91.392,88.89 91.392,109.627C91.392,130.364 108.227,147.199 128.964,147.199C149.701,147.199 166.536,130.364 166.536,109.627C166.536,88.89 149.701,72.055 128.964,72.055ZM136.055,166.242C145.444,165.076 154.129,161.625 161.534,156.463L172.231,191.223L153.472,186.873L140.404,201.018L132.879,176.565L136.055,166.242ZM96.394,156.463C105.41,162.748 116.322,166.496 128.094,166.673L117.524,201.018L104.456,186.873L85.697,191.223L96.394,156.463Z"/>
                </g>
                <g transform="matrix(0.164398,0,0,0.164398,43.8318,52.8331)">
                    <path d="M123.139,112.575C127.186,106.947 134.107,99.201 144.915,92.734C150.03,89.673 154.721,87.946 155.307,87.8C155.642,87.716 156.476,87.636 156.942,87.808C157.407,87.98 157.904,88.406 158.102,88.831C158.3,89.255 158.304,89.878 158.13,90.355C157.903,90.979 157.553,91.331 156.566,91.928C151.381,95.062 138.936,104.188 130.92,121.509C129.234,125.151 129.392,125.231 128.826,126.049C126.895,128.842 123.978,128.643 123.506,128.611C123.184,128.589 121.366,128.465 119.806,126.991C118.516,125.77 113.745,118.622 109.076,114.152C108.552,113.65 107.805,112.926 107.714,112.835C106.871,111.992 105.506,110.49 105.506,108.931C105.506,107.985 105.555,107.088 106.165,106.172C106.775,105.256 107.968,104.427 109.134,104.194C110.857,103.849 112.68,104.942 113.425,105.332C115.879,106.616 119.554,109.104 123.139,112.575Z"/>
                </g>
            </g>
        </g>
    </g>
</svg>
