<?xml version="1.0" encoding="UTF-8" standalone="no"?><!DOCTYPE svg PUBLIC "-//W3C//DTD SVG 1.1//EN" "http://www.w3.org/Graphics/SVG/1.1/DTD/svg11.dtd"><svg width="100%" height="100%" viewBox="0 0 2134 2134" version="1.1" xmlns="http://www.w3.org/2000/svg" xmlns:xlink="http://www.w3.org/1999/xlink" xml:space="preserve" xmlns:serif="http://www.serif.com/" style="fill-rule:evenodd;clip-rule:evenodd;stroke-linejoin:round;stroke-miterlimit:2;"><path d="M321.113,1610.23c-104.659,-100.29 -183.761,-217.741 -237.307,-352.352c-53.545,-134.627 -80.317,-267.606 -80.317,-398.936c-0,-131.33 25.736,-263.459 77.207,-396.387c51.488,-132.91 131.627,-251.695 240.417,-356.355l113.949,115.403c-86.692,85.74 -153.411,186.09 -200.156,301.05c-46.746,114.961 -70.119,227.057 -70.119,336.289c0,109.232 23.373,221.328 70.119,336.289c46.745,114.96 113.464,215.31 200.156,301.05l-113.949,113.949Zm246.766,-246.766c-71.393,-66.294 -123.612,-144.674 -156.657,-235.139c-33.028,-90.466 -49.542,-180.26 -49.542,-269.383c-0,-81.372 15.851,-168.319 47.553,-260.841c31.702,-92.539 84.584,-173.767 158.646,-243.681l113.949,113.974c-49.074,50.996 -87.575,112.93 -115.504,185.802c-27.945,72.872 -41.918,141.121 -41.918,204.746c-0,57.795 13.913,123.74 41.74,197.836c27.826,74.079 66.387,138.317 115.682,192.712l-113.949,113.974Zm1.326,714.495l348.553,-998.182c-32.756,-23.067 -59.367,-53.094 -79.833,-90.083c-20.466,-36.989 -30.699,-80.573 -30.699,-130.752c-0,-74.504 24.571,-136.752 73.714,-186.745c49.142,-49.992 110.965,-74.988 185.47,-74.988c74.504,-0 136.752,24.996 186.744,74.988c49.993,49.993 74.989,112.241 74.989,186.745c-0,50.179 -10.658,93.287 -31.974,129.324c-21.316,36.02 -47.502,66.523 -78.558,91.511l346.003,998.182l-186.133,0l-76.825,-229.479l-465.944,0l-79.374,229.479l-186.133,0Zm321.271,-392.562l351.867,0l-175.933,-523.594l-175.934,523.594Zm674.464,-321.933l-113.949,-113.974c49.074,-50.996 88.001,-112.93 116.779,-185.802c28.795,-72.872 43.193,-141.121 43.193,-204.746c-0,-57.795 -14.338,-123.74 -43.015,-197.836c-28.676,-74.079 -67.662,-138.317 -116.957,-192.712l113.949,-113.974c74.062,68.963 127.794,150.13 161.196,243.503c33.402,93.389 49.253,180.395 47.553,261.019c-0,80.624 -16.701,167.392 -50.103,260.306c-33.402,92.896 -86.284,174.301 -158.646,244.216Zm248.219,246.766l-115.402,-113.949c86.692,-85.74 154.074,-186.09 202.145,-301.05c48.072,-114.961 72.108,-227.057 72.108,-336.289c-0,-109.232 -24.036,-221.328 -72.108,-336.289c-48.071,-114.96 -115.453,-215.31 -202.145,-301.05l115.402,-115.403c106.36,103.912 186.312,222.518 239.857,355.82c53.545,133.285 80.317,265.592 80.317,396.922c0,132.078 -25.259,264.385 -75.779,396.922c-50.519,132.554 -131.984,250.676 -244.395,354.366Z" style="fill-rule:nonzero;"/></svg>