<?xml version="1.0" encoding="UTF-8" standalone="no"?><!DOCTYPE svg PUBLIC "-//W3C//DTD SVG 1.1//EN" "http://www.w3.org/Graphics/SVG/1.1/DTD/svg11.dtd"><svg width="100%" height="100%" viewBox="0 0 2134 2134" version="1.1" xmlns="http://www.w3.org/2000/svg" xmlns:xlink="http://www.w3.org/1999/xlink" xml:space="preserve" xmlns:serif="http://www.serif.com/" style="fill-rule:evenodd;clip-rule:evenodd;stroke-linejoin:round;stroke-miterlimit:2;"><path d="M1603.85,2088.89l-1074.37,-0c-134.734,-0 -249.26,-47.195 -343.577,-141.586c-94.306,-94.378 -141.459,-209.273 -141.459,-344.687c0,-135.401 47.153,-250.496 141.459,-345.287c94.317,-94.79 208.843,-142.185 343.577,-142.185l1074.37,-0c134.734,-0 249.26,47.195 343.578,141.585c94.305,94.378 141.458,209.274 141.458,344.687c-0,135.401 -47.153,250.497 -141.458,345.287c-94.318,94.791 -208.844,142.186 -343.578,142.186Zm177.848,-311.112c47.344,-47.936 71.016,-106.432 71.016,-175.487c-0,-69.056 -23.763,-127.643 -71.289,-175.761c-47.541,-48.119 -106.06,-72.178 -175.556,-72.178c-69.511,-0 -128.296,23.968 -176.354,71.904c-48.072,47.936 -72.109,106.432 -72.109,175.488c0,69.055 24.128,127.642 72.383,175.761c48.24,48.118 107.108,72.178 176.604,72.178c69.511,-0 127.947,-23.969 175.305,-71.905Zm-1252.22,-759.587c-134.734,-0 -249.26,-47.395 -343.577,-142.186c-94.306,-94.79 -141.459,-209.886 -141.459,-345.287c0,-135.413 47.153,-250.309 141.459,-344.687c94.317,-94.39 208.843,-141.586 343.577,-141.586l1074.37,0c134.734,0 249.26,47.396 343.578,142.186c94.305,94.791 141.458,209.886 141.458,345.287c-0,135.414 -47.153,250.309 -141.458,344.687c-94.318,94.391 -208.844,141.586 -343.578,141.586l-1074.37,-0Zm175.429,-311.112c47.343,-47.936 71.015,-106.432 71.015,-175.487c0,-69.056 -23.763,-127.643 -71.289,-175.761c-47.541,-48.119 -106.059,-72.178 -175.556,-72.178c-69.511,-0 -128.295,23.968 -176.353,71.904c-48.073,47.936 -72.11,106.432 -72.11,175.488c0,69.055 24.128,127.642 72.383,175.761c48.24,48.118 107.109,72.177 176.605,72.177c69.511,0 127.946,-23.968 175.305,-71.904Z"/></svg>